<?xml version="1.0" standalone="no"?>
<!DOCTYPE svg PUBLIC "-//W3C//DTD SVG 20010904//EN"
 "http://www.w3.org/TR/2001/REC-SVG-20010904/DTD/svg10.dtd">
<svg version="1.0" xmlns="http://www.w3.org/2000/svg"
 width="16.000000pt" height="16.000000pt" viewBox="0 0 16.000000 16.000000"
 preserveAspectRatio="xMidYMid meet">
<metadata>
Created by potrace 1.11, written by Peter Selinger 2001-2013
</metadata>
<g transform="translate(0.000000,16.000000) scale(0.004969,-0.004969)"
fill="#000000" stroke="none">
<path d="M1485 2554 c-294 -53 -554 -252 -688 -524 l-42 -85 -325 1 c-179 0
-338 -3 -354 -8 -16 -4 -40 -17 -53 -30 -20 -19 -23 -31 -23 -100 0 -150 -14
-146 495 -143 220 1 405 3 412 3 15 2 83 61 83 73 0 25 66 183 95 229 49 75
183 210 209 210 4 0 19 9 34 20 32 24 152 67 214 78 71 12 219 6 284 -11 238
-62 409 -226 485 -463 12 -38 30 -81 40 -95 22 -32 88 -60 121 -53 44 10 143
5 191 -9 258 -80 346 -397 166 -602 -39 -44 -131 -99 -184 -110 -22 -5 -472
-9 -1000 -10 -942 -1 -961 -1 -995 -21 -99 -57 -96 -195 5 -244 39 -19 66 -20
1005 -18 1036 1 1038 1 1155 53 170 75 300 218 362 397 33 97 39 251 13 353
-49 192 -157 330 -332 425 -73 39 -214 79 -266 75 -19 -1 -29 11 -63 79 -141
281 -392 474 -693 530 -93 18 -253 18 -351 0z"/>
<path d="M361 1419 c-48 -21 -68 -46 -79 -94 -12 -55 1 -94 43 -135 l36 -35
285 -2 c248 -3 289 -1 317 14 102 52 105 197 4 250 -28 14 -68 17 -301 18
-229 0 -274 -2 -305 -16z"/>
</g>
</svg>
