<?xml version="1.0" standalone="no"?>
<!DOCTYPE svg PUBLIC "-//W3C//DTD SVG 20010904//EN"
 "http://www.w3.org/TR/2001/REC-SVG-20010904/DTD/svg10.dtd">
<svg version="1.0" xmlns="http://www.w3.org/2000/svg"
 width="399.000000pt" height="399.000000pt" viewBox="0 0 399.000000 399.000000"
 preserveAspectRatio="xMidYMid meet">
<metadata>
Created by potrace 1.11, written by Peter Selinger 2001-2013
</metadata>
<g transform="translate(0.000000,399.000000) scale(0.100000,-0.100000)"
fill="#000000" stroke="none">
<path d="M1848 3114 c-231 -37 -458 -154 -628 -324 -95 -94 -161 -186 -226
-314 l-51 -101 -410 0 -410 0 -42 -28 c-91 -60 -104 -202 -25 -268 53 -44 57
-45 571 -43 313 0 497 5 513 11 48 20 93 78 105 133 10 50 51 145 91 211 121
200 312 332 551 383 99 21 271 13 376 -18 278 -83 470 -270 561 -547 48 -146
98 -191 201 -182 28 3 63 6 79 7 103 8 252 -52 333 -134 211 -213 155 -571
-112 -707 -105 -54 -63 -53 -1303 -53 -1026 0 -1156 -2 -1191 -16 -119 -47
-135 -217 -28 -291 l40 -28 1176 -3 c1048 -2 1185 -1 1256 14 188 38 360 145
472 294 108 144 160 299 161 478 2 300 -178 585 -451 712 -75 35 -197 68 -269
72 l-53 3 -50 100 c-145 291 -380 495 -690 600 -153 51 -374 67 -547 39z"/>
<path d="M488 1749 c-118 -32 -161 -186 -76 -276 51 -55 55 -55 417 -56 368 0
366 -1 424 61 42 44 49 133 16 191 -13 23 -39 52 -59 64 -34 21 -43 22 -365
23 -181 1 -342 -2 -357 -7z"/>
</g>
</svg>
